# xmcd
# Track frame offsets:
# 150
# 28008
# 47021
# 66406
# 89196
# 110665
# 129186
# 142196
# 160542
# 183812
# 199664
#
# Disc length: 2930 seconds
# Revision: 0
# Processed by: cddbd v1.5.2PL0 Copyright (c) Steve Scherf et al.
# Submitted via: VisiTrax 2.10.2.252 - For more info visit www.synapsa.com
#
DISCID=9b0b700b
DTITLE=Coco Montoya - Ya think I´d know better
DYEAR=1996
DGENRE=Blues
TTITLE0=Monkey see, monkey do
TTITLE1=Seven desires
TTITLE2=Hiding place
TTITLE3=The heart of soul
TTITLE4=Tumbleweed
TTITLE5=Fool in love
TTITLE6=Can´t get my ass in gear
TTITLE7=You´d think I´d know better by now
TTITLE8=Big boy Pete
TTITLE9=Too much of a good thing
TTITLE10=Dyin´flu
EXTD=
EXTT0=
EXTT1=
EXTT2=
EXTT3=
EXTT4=
EXTT5=
EXTT6=
EXTT7=
EXTT8=
EXTT9=
EXTT10=
PLAYORDER=
